# xmcd
#
# Track frame offsets: 
#        150
#        15626
#        31610
#        46707
#        62091
#        76567
#        90371
#        106428
#        121589
#        136182
#        150794
#        165885
#        181638
#        198369
#        213703
#        228313
#        243893
#        258808
#        272993
#        287515
#        303383
#        318503
#        333858
#
# Disc length: 4637 seconds
#
# Revision: 0
# Processed by: cddbd v1.5.2PL0 Copyright (c) Steve Scherf et al.
# Submitted via: ExactAudioCopy v0.99pb4
#
DISCID=0d121b17
DTITLE=Louis ARMSTRONG - New Orleans in Chicago
DYEAR=1930
DGENRE=Blues
TTITLE0=Bessies Couldn't Help IT
TTITLE1=Blue Turning Gray Over You
TTITLE2=Dear Old Southland
TTITLE3=My Sweet
TTITLE4=I Can't Believe That You're In Love With Me
TTITLE5=Indian Cradle Song
TTITLE6=Exactly Like You
TTITLE7=Dinah
TTITLE8=Tiger Rag
TTITLE9=I'm A Ding Dong Daddy (from Dumas)
TTITLE10=I'm In The Market For You
TTITLE11=I'm Confessin' (That I Love You)
TTITLE12=If I Could Be With You One Hour Tonight
TTITLE13=Body And Soul
TTITLE14=Memories Of You
TTITLE15=You're Lucky To Me
TTITLE16=Sweethearts On Parade
TTITLE17=You're Driving Me Crazy 01
TTITLE18=You're Driving Me Crazy 02
TTITLE19=The Peanut Vendor
TTITLE20=Just A Gigolo
TTITLE21=Shine
TTITLE22=Walkin' My Baby Back Home
EXTD=
EXTT0=
EXTT1=
EXTT2=
EXTT3=
EXTT4=
EXTT5=
EXTT6=
EXTT7=
EXTT8=
EXTT9=
EXTT10=
EXTT11=
EXTT12=
EXTT13=
EXTT14=
EXTT15=
EXTT16=
EXTT17=
EXTT18=
EXTT19=
EXTT20=
EXTT21=
EXTT22=
PLAYORDER=
